<?xml version="1.0" encoding="UTF-8"?>
<!DOCTYPE svg PUBLIC "-//W3C//DTD SVG 1.1//EN" "http://www.w3.org/Graphics/SVG/1.1/DTD/svg11.dtd">
<svg xmlns="http://www.w3.org/2000/svg" version="1.1" width="500px" height="500px" style="shape-rendering:geometricPrecision; text-rendering:geometricPrecision; image-rendering:optimizeQuality; fill-rule:evenodd; clip-rule:evenodd" xmlns:xlink="http://www.w3.org/1999/xlink">
<g><path style="opacity:0.761" fill="#9c859e" d="M 290.5,179.5 C 294.703,179.076 298.703,179.576 302.5,181C 300.935,183.403 298.935,185.236 296.5,186.5C 296.5,185.5 296.5,184.5 296.5,183.5C 297.5,183.5 298.5,183.5 299.5,183.5C 299.5,182.5 299.5,181.5 299.5,180.5C 296.287,180.81 293.287,180.477 290.5,179.5 Z"/></g>
<g><path style="opacity:0.269" fill="#8e8cb3" d="M 447.5,180.5 C 448.499,233.997 448.832,287.664 448.5,341.5C 444.5,341.5 440.5,341.5 436.5,341.5C 436.5,341.167 436.5,340.833 436.5,340.5C 438.833,340.5 441.167,340.5 443.5,340.5C 444.833,340.5 446.167,340.5 447.5,340.5C 447.5,287.167 447.5,233.833 447.5,180.5 Z"/></g>
<g><path style="opacity:1" fill="#a74171" d="M 181.5,206.5 C 179.126,205.314 176.792,205.314 174.5,206.5C 174.144,208.19 173.144,209.19 171.5,209.5C 170.454,211.882 170.454,214.215 171.5,216.5C 169.827,215.657 168.66,214.324 168,212.5C 165.297,215.371 162.464,218.038 159.5,220.5C 159.5,219.833 159.167,219.5 158.5,219.5C 158.5,218.833 158.167,218.5 157.5,218.5C 157.5,218.167 157.5,217.833 157.5,217.5C 158.833,217.5 160.167,217.5 161.5,217.5C 161.67,216.178 161.337,215.011 160.5,214C 164.213,213.77 164.88,212.603 162.5,210.5C 163.651,209.269 164.817,209.269 166,210.5C 166.373,208.302 166.873,206.135 167.5,204C 164.851,196.838 165.518,196.671 169.5,203.5C 171.071,204.309 172.738,204.643 174.5,204.5C 174.5,202.833 174.5,201.167 174.5,199.5C 173.5,199.5 172.5,199.5 171.5,199.5C 171.025,196.115 172.358,193.782 175.5,192.5C 174.354,191.281 173.354,189.948 172.5,188.5C 171.127,190.207 169.461,191.54 167.5,192.5C 167.5,191.833 167.5,191.167 167.5,190.5C 170.498,186.661 173.831,183.161 177.5,180C 183.491,179.501 189.491,179.334 195.5,179.5C 195.649,180.552 195.483,181.552 195,182.5C 189.167,189 183.333,195.5 177.5,202C 179.751,202.748 181.084,204.248 181.5,206.5 Z"/></g>
<g><path style="opacity:1" fill="#7e457b" d="M 290.5,179.5 C 293.287,180.477 296.287,180.81 299.5,180.5C 299.5,181.5 299.5,182.5 299.5,183.5C 298.5,183.5 297.5,183.5 296.5,183.5C 296.5,184.5 296.5,185.5 296.5,186.5C 295.208,189.401 293.208,191.734 290.5,193.5C 289.887,190.031 291.221,188.031 294.5,187.5C 295.575,183.077 293.908,181.077 289.5,181.5C 286.99,181.876 284.657,182.71 282.5,184C 281.887,186.147 281.221,188.314 280.5,190.5C 278.929,189.691 277.262,189.357 275.5,189.5C 278.384,182.943 283.384,179.609 290.5,179.5 Z"/></g>
<g><path style="opacity:1" fill="#cb2657" d="M 63.5,325.5 C 76.6352,327.049 89.9685,327.715 103.5,327.5C 102.871,329.465 102.204,331.465 101.5,333.5C 102.204,335.535 102.871,337.535 103.5,339.5C 100.615,339.194 97.9479,339.527 95.5,340.5C 79.8333,340.5 64.1667,340.5 48.5,340.5C 48.5,287.5 48.5,234.5 48.5,181.5C 53.1667,181.5 57.8333,181.5 62.5,181.5C 62.1678,229.67 62.5012,277.67 63.5,325.5 Z"/></g>
<g><path style="opacity:1" fill="#893275" d="M 258.5,190.5 C 255.471,193.859 252.471,197.192 249.5,200.5C 249.44,199.957 249.107,199.624 248.5,199.5C 246.868,200.297 245.368,201.297 244,202.5C 242.344,201.235 240.677,199.901 239,198.5C 239.948,195.982 240.781,193.315 241.5,190.5C 242.552,190.649 243.552,190.483 244.5,190C 243.549,189.282 243.383,188.449 244,187.5C 245.5,186 247,184.5 248.5,183C 252.848,182.535 257.181,182.035 261.5,181.5C 261.5,182.833 261.5,184.167 261.5,185.5C 260.127,185.343 258.793,185.51 257.5,186C 258.38,187.356 258.714,188.856 258.5,190.5 Z"/></g>
<g><path style="opacity:1" fill="#ae5478" d="M 167.5,190.5 C 167.5,191.167 167.5,191.833 167.5,192.5C 164.769,196.234 161.436,199.234 157.5,201.5C 154.229,198.999 151.396,195.999 149,192.5C 147.022,195.645 144.522,198.312 141.5,200.5C 139.962,195.302 140.295,190.302 142.5,185.5C 140.816,184.146 140.316,182.479 141,180.5C 146.416,179.361 151.916,179.194 157.5,180C 161.178,183.203 164.511,186.703 167.5,190.5 Z"/></g>
<g><path style="opacity:1" fill="#ad2965" d="M 163.5,193.5 C 163.167,193.5 162.833,193.5 162.5,193.5C 161.833,193.5 161.5,193.833 161.5,194.5C 159.559,194.869 157.725,195.536 156,196.5C 153.892,194.206 151.392,192.539 148.5,191.5C 147.047,189.174 145.714,186.674 144.5,184C 148.5,183.333 148.5,182.667 144.5,182C 149.963,181.161 155.129,181.994 160,184.5C 160.368,185.91 161.201,186.91 162.5,187.5C 163.466,189.396 163.799,191.396 163.5,193.5 Z"/></g>
<g><path style="opacity:0.004" fill="#fddcea" d="M 162.5,193.5 C 162.5,194.167 162.833,194.5 163.5,194.5C 162.738,196.262 161.404,197.262 159.5,197.5C 160.167,196.5 160.833,195.5 161.5,194.5C 161.5,193.833 161.833,193.5 162.5,193.5 Z"/></g>
<g><path style="opacity:1" fill="#5a3886" d="M 366.5,179.5 C 366.804,180.15 367.137,180.817 367.5,181.5C 380.817,182.499 394.15,182.833 407.5,182.5C 407.918,183.222 408.584,183.722 409.5,184C 408.347,186.616 407.347,189.282 406.5,192C 396.36,192.964 386.36,193.797 376.5,194.5C 375.167,194.833 375.167,195.167 376.5,195.5C 376.443,196.609 376.11,197.609 375.5,198.5C 374.501,245.664 374.168,292.997 374.5,340.5C 370.167,340.5 365.833,340.5 361.5,340.5C 361.5,316.167 361.5,291.833 361.5,267.5C 352.342,266.67 343.009,266.17 333.5,266C 336.167,265.667 338.833,265.333 341.5,265C 342.861,263.416 343.528,261.582 343.5,259.5C 340.729,259.579 338.063,259.079 335.5,258C 340.428,257.782 345.428,257.115 350.5,256C 354.138,255.241 357.471,254.075 360.5,252.5C 360.5,228.167 360.5,203.833 360.5,179.5C 362.5,179.5 364.5,179.5 366.5,179.5 Z"/></g>
<g><path style="opacity:1" fill="#8f4376" d="M 258.5,190.5 C 258.714,188.856 258.38,187.356 257.5,186C 258.793,185.51 260.127,185.343 261.5,185.5C 261.5,184.167 261.5,182.833 261.5,181.5C 257.181,182.035 252.848,182.535 248.5,183C 247,184.5 245.5,186 244,187.5C 243.383,188.449 243.549,189.282 244.5,190C 243.552,190.483 242.552,190.649 241.5,190.5C 240.781,193.315 239.948,195.982 239,198.5C 240.677,199.901 242.344,201.235 244,202.5C 245.368,201.297 246.868,200.297 248.5,199.5C 249.107,199.624 249.44,199.957 249.5,200.5C 241.84,209.493 233.84,218.16 225.5,226.5C 225.5,224.5 225.5,222.5 225.5,220.5C 226.552,220.649 227.552,220.483 228.5,220C 228.833,219 229.167,218 229.5,217C 230.793,216.51 232.127,216.343 233.5,216.5C 233.128,213.978 233.961,211.978 236,210.5C 236.333,210.833 236.667,211.167 237,211.5C 238.544,209.631 240.044,207.797 241.5,206C 239.285,203.936 237.618,201.436 236.5,198.5C 234.473,199.693 232.973,201.36 232,203.5C 231.667,203.167 231.333,202.833 231,202.5C 229.001,204.253 226.835,205.587 224.5,206.5C 232.299,197.531 240.299,188.698 248.5,180C 254.491,179.501 260.491,179.334 266.5,179.5C 266.649,180.552 266.483,181.552 266,182.5C 263.267,185.062 260.767,187.729 258.5,190.5 Z"/></g>
<g><path style="opacity:0.952" fill="#625994" d="M 366.5,179.5 C 393.672,179.169 420.672,179.502 447.5,180.5C 447.5,233.833 447.5,287.167 447.5,340.5C 446.167,340.5 444.833,340.5 443.5,340.5C 444.5,339.833 445.5,339.167 446.5,338.5C 446.5,286.5 446.5,234.5 446.5,182.5C 436.167,182.5 425.833,182.5 415.5,182.5C 412.833,182.5 410.167,182.5 407.5,182.5C 394.15,182.833 380.817,182.499 367.5,181.5C 367.137,180.817 366.804,180.15 366.5,179.5 Z"/></g>
<g><path style="opacity:1" fill="#9a306e" d="M 224.5,179.5 C 224.721,180.735 225.388,181.735 226.5,182.5C 225.271,183.281 223.938,183.781 222.5,184C 223.458,185.147 223.125,186.147 221.5,187C 217.755,186.965 217.088,187.965 219.5,190C 217.667,192.825 215.834,195.659 214,198.5C 213.586,198.043 213.086,197.709 212.5,197.5C 211.571,198.689 211.238,200.022 211.5,201.5C 209.061,202.053 206.727,202.053 204.5,201.5C 203.682,204.107 203.182,206.774 203,209.5C 201.644,210.38 200.144,210.714 198.5,210.5C 198.5,212.5 198.5,214.5 198.5,216.5C 194.044,215.54 191.377,212.706 190.5,208C 192.201,206.14 193.201,203.973 193.5,201.5C 199.253,193.908 205.587,186.741 212.5,180C 216.486,179.501 220.486,179.334 224.5,179.5 Z"/></g>
<g><path style="opacity:1" fill="#aa2b66" d="M 157.5,217.5 C 157.167,216.5 156.5,215.833 155.5,215.5C 155.5,215.167 155.5,214.833 155.5,214.5C 154.071,211.692 153.405,208.692 153.5,205.5C 154.5,203.833 155.833,202.5 157.5,201.5C 161.436,199.234 164.769,196.234 167.5,192.5C 169.461,191.54 171.127,190.207 172.5,188.5C 173.354,189.948 174.354,191.281 175.5,192.5C 172.358,193.782 171.025,196.115 171.5,199.5C 172.5,199.5 173.5,199.5 174.5,199.5C 174.5,201.167 174.5,202.833 174.5,204.5C 172.738,204.643 171.071,204.309 169.5,203.5C 165.518,196.671 164.851,196.838 167.5,204C 166.873,206.135 166.373,208.302 166,210.5C 164.817,209.269 163.651,209.269 162.5,210.5C 164.88,212.603 164.213,213.77 160.5,214C 161.337,215.011 161.67,216.178 161.5,217.5C 160.167,217.5 158.833,217.5 157.5,217.5 Z"/></g>
<g><path style="opacity:1" fill="#9d4978" d="M 224.5,179.5 C 226.527,179.338 228.527,179.505 230.5,180C 230.957,180.414 231.291,180.914 231.5,181.5C 220.815,193.017 210.315,204.684 200,216.5C 198.736,218.607 196.903,219.607 194.5,219.5C 194.5,218.833 194.167,218.5 193.5,218.5C 193.289,216.576 192.623,216.243 191.5,217.5C 189.952,217.179 189.285,216.179 189.5,214.5C 186.858,214.512 185.525,213.179 185.5,210.5C 187.74,207.252 190.407,204.252 193.5,201.5C 193.201,203.973 192.201,206.14 190.5,208C 191.377,212.706 194.044,215.54 198.5,216.5C 198.5,214.5 198.5,212.5 198.5,210.5C 200.144,210.714 201.644,210.38 203,209.5C 203.182,206.774 203.682,204.107 204.5,201.5C 206.727,202.053 209.061,202.053 211.5,201.5C 211.238,200.022 211.571,198.689 212.5,197.5C 213.086,197.709 213.586,198.043 214,198.5C 215.834,195.659 217.667,192.825 219.5,190C 217.088,187.965 217.755,186.965 221.5,187C 223.125,186.147 223.458,185.147 222.5,184C 223.938,183.781 225.271,183.281 226.5,182.5C 225.388,181.735 224.721,180.735 224.5,179.5 Z"/></g>
<g><path style="opacity:1" fill="#853377" d="M 290.5,193.5 C 284.146,201.184 277.479,208.518 270.5,215.5C 268.61,215.297 267.11,215.963 266,217.5C 261.952,221.88 258.285,226.546 255,231.5C 253.989,230.663 252.822,230.33 251.5,230.5C 251.5,232.167 251.5,233.833 251.5,235.5C 250.022,235.238 248.689,235.571 247.5,236.5C 248.246,237.736 248.579,239.07 248.5,240.5C 245.138,244.192 241.805,247.859 238.5,251.5C 236.833,251.5 235.167,251.5 233.5,251.5C 233.5,253.167 233.5,254.833 233.5,256.5C 232.167,256.5 230.833,256.5 229.5,256.5C 227.673,253.738 226.673,250.904 226.5,248C 229.376,242.934 233.209,238.101 238,233.5C 239.122,231.593 239.955,229.593 240.5,227.5C 251.827,214.507 263.493,201.84 275.5,189.5C 277.262,189.357 278.929,189.691 280.5,190.5C 281.221,188.314 281.887,186.147 282.5,184C 284.657,182.71 286.99,181.876 289.5,181.5C 293.908,181.077 295.575,183.077 294.5,187.5C 291.221,188.031 289.887,190.031 290.5,193.5 Z"/></g>
<g><path style="opacity:0.5" fill="#8b76ad" d="M 375.5,198.5 C 375.541,245.901 375.541,293.234 375.5,340.5C 375.167,340.5 374.833,340.5 374.5,340.5C 374.168,292.997 374.501,245.664 375.5,198.5 Z"/></g>
<g><path style="opacity:0.348" fill="#8379ac" d="M 376.5,194.5 C 395.833,194.5 415.167,194.5 434.5,194.5C 434.83,214.007 434.497,233.341 433.5,252.5C 433.5,233.5 433.5,214.5 433.5,195.5C 414.5,195.5 395.5,195.5 376.5,195.5C 375.167,195.167 375.167,194.833 376.5,194.5 Z"/></g>
<g><path style="opacity:0.098" fill="#af6c89" d="M 143.5,203.5 C 142.182,206.258 141.515,209.424 141.5,213C 141.537,216.583 141.87,220.083 142.5,223.5C 140.539,216.913 139.872,209.913 140.5,202.5C 141.791,202.263 142.791,202.596 143.5,203.5 Z"/></g>
<g><path style="opacity:1" fill="#ae2a64" d="M 143.5,203.5 C 145.868,205.533 147.868,207.867 149.5,210.5C 150.014,212.366 150.68,214.2 151.5,216C 149.815,219.163 150.481,219.996 153.5,218.5C 155.511,219.519 157.511,220.519 159.5,221.5C 160.252,223.761 161.252,225.927 162.5,228C 161.42,230.584 159.754,232.751 157.5,234.5C 155.535,233.81 153.202,233.143 150.5,232.5C 149.833,232.5 149.5,232.167 149.5,231.5C 148.887,227.353 146.554,224.687 142.5,223.5C 141.87,220.083 141.537,216.583 141.5,213C 141.515,209.424 142.182,206.258 143.5,203.5 Z"/></g>
<g><path style="opacity:1" fill="#b55a81" d="M 153.5,205.5 C 153.405,208.692 154.071,211.692 155.5,214.5C 154.167,214.833 154.167,215.167 155.5,215.5C 156.5,215.833 157.167,216.5 157.5,217.5C 156.167,217.833 156.167,218.167 157.5,218.5C 158.167,218.5 158.5,218.833 158.5,219.5C 159.167,219.5 159.5,219.833 159.5,220.5C 159.5,220.833 159.5,221.167 159.5,221.5C 157.511,220.519 155.511,219.519 153.5,218.5C 150.481,219.996 149.815,219.163 151.5,216C 150.68,214.2 150.014,212.366 149.5,210.5C 150.593,208.651 151.926,206.984 153.5,205.5 Z"/></g>
<g><path style="opacity:1" fill="#a12c69" d="M 181.5,206.5 C 183.167,207.5 184.5,208.833 185.5,210.5C 185.525,213.179 186.858,214.512 189.5,214.5C 189.285,216.179 189.952,217.179 191.5,217.5C 192.167,217.833 192.833,218.167 193.5,218.5C 194.167,218.5 194.5,218.833 194.5,219.5C 194.833,220.167 195.167,220.833 195.5,221.5C 195.979,224.064 196.645,226.564 197.5,229C 194.719,230.717 192.386,232.884 190.5,235.5C 189.24,232.88 187.24,231.213 184.5,230.5C 183.833,230.5 183.5,230.167 183.5,229.5C 183.484,227.001 183.817,224.335 184.5,221.5C 183.5,221.5 182.5,221.5 181.5,221.5C 181.719,222.675 181.386,223.675 180.5,224.5C 179.026,223.564 178.026,222.23 177.5,220.5C 175.978,219.438 174.312,218.771 172.5,218.5C 172.167,217.833 171.833,217.167 171.5,216.5C 170.454,214.215 170.454,211.882 171.5,209.5C 173.144,209.19 174.144,208.19 174.5,206.5C 176.792,205.314 179.126,205.314 181.5,206.5 Z"/></g>
<g><path style="opacity:0.773" fill="#925a83" d="M 270.5,215.5 C 263.905,224.432 256.571,232.766 248.5,240.5C 248.579,239.07 248.246,237.736 247.5,236.5C 248.689,235.571 250.022,235.238 251.5,235.5C 251.5,233.833 251.5,232.167 251.5,230.5C 252.822,230.33 253.989,230.663 255,231.5C 258.285,226.546 261.952,221.88 266,217.5C 267.11,215.963 268.61,215.297 270.5,215.5 Z"/></g>
<g><path style="opacity:0.384" fill="#ae5778" d="M 122.5,179.5 C 127.43,179.197 132.263,179.531 137,180.5C 137.5,227.165 137.667,273.832 137.5,320.5C 132.5,320.5 127.5,320.5 122.5,320.5C 122.5,273.5 122.5,226.5 122.5,179.5 Z"/></g>
<g><path style="opacity:1" fill="#b62761" d="M 124.5,180.5 C 128.167,180.5 131.833,180.5 135.5,180.5C 135.5,226.833 135.5,273.167 135.5,319.5C 131.5,319.5 127.5,319.5 123.5,319.5C 123.172,273.095 123.505,226.761 124.5,180.5 Z"/></g>
<g><path style="opacity:0.965" fill="#af5177" d="M 142.5,223.5 C 146.554,224.687 148.887,227.353 149.5,231.5C 147.471,234.797 144.971,237.797 142,240.5C 141.667,240.167 141.333,239.833 141,239.5C 140.059,233.95 140.559,228.616 142.5,223.5 Z"/></g>
<g><path style="opacity:0.004" fill="#fbe2f3" d="M 181.5,229.5 C 181.833,229.5 182.167,229.5 182.5,229.5C 182.833,229.5 183.167,229.5 183.5,229.5C 183.5,230.167 183.833,230.5 184.5,230.5C 184.833,231.167 185.167,231.833 185.5,232.5C 184.833,232.833 184.167,233.167 183.5,233.5C 183.267,231.938 182.6,230.605 181.5,229.5 Z"/></g>
<g><path style="opacity:1" fill="#983470" d="M 225.5,226.5 C 223.157,229.207 220.823,231.874 218.5,234.5C 214.5,233.833 212.833,235.5 213.5,239.5C 209.931,239.893 207.598,241.893 206.5,245.5C 204.041,247.984 201.374,249.984 198.5,251.5C 198.5,252.833 198.5,254.167 198.5,255.5C 196.379,255.675 194.379,255.341 192.5,254.5C 190.412,250.641 190.079,246.641 191.5,242.5C 191.953,241.542 192.619,240.708 193.5,240C 190.334,238 187.668,235.5 185.5,232.5C 185.167,231.833 184.833,231.167 184.5,230.5C 187.24,231.213 189.24,232.88 190.5,235.5C 192.386,232.884 194.719,230.717 197.5,229C 196.645,226.564 195.979,224.064 195.5,221.5C 199.034,223.531 201.2,226.531 202,230.5C 209.338,222.329 216.838,214.329 224.5,206.5C 226.835,205.587 229.001,204.253 231,202.5C 231.333,202.833 231.667,203.167 232,203.5C 232.973,201.36 234.473,199.693 236.5,198.5C 237.618,201.436 239.285,203.936 241.5,206C 240.044,207.797 238.544,209.631 237,211.5C 236.667,211.167 236.333,210.833 236,210.5C 233.961,211.978 233.128,213.978 233.5,216.5C 232.127,216.343 230.793,216.51 229.5,217C 229.167,218 228.833,219 228.5,220C 227.552,220.483 226.552,220.649 225.5,220.5C 225.5,222.5 225.5,224.5 225.5,226.5 Z M 194.5,238.5 C 194.517,236.972 195.184,236.472 196.5,237C 195.956,237.717 195.289,238.217 194.5,238.5 Z"/></g>
<g><path style="opacity:1" fill="#aa2d68" d="M 172.5,245.5 C 171.167,245.5 169.833,245.5 168.5,245.5C 168.254,248.47 166.588,249.803 163.5,249.5C 163.326,251.861 162.993,254.194 162.5,256.5C 162.19,258.144 161.19,259.144 159.5,259.5C 159.5,258.833 159.167,258.5 158.5,258.5C 158.5,257.833 158.167,257.5 157.5,257.5C 157.5,257.167 157.5,256.833 157.5,256.5C 157.167,255.5 156.5,254.833 155.5,254.5C 155.507,251.355 154.507,248.689 152.5,246.5C 153.026,244.77 154.026,243.436 155.5,242.5C 156.873,242.657 158.207,242.49 159.5,242C 161.647,239.763 163.98,237.763 166.5,236C 168.461,227.143 171.795,226.809 176.5,235C 172.544,236.114 172.544,236.947 176.5,237.5C 176.5,238.5 176.5,239.5 176.5,240.5C 175.167,240.5 173.833,240.5 172.5,240.5C 172.5,242.167 172.5,243.833 172.5,245.5 Z"/></g>
<g><path style="opacity:0.184" fill="#86628a" d="M 302.5,252.5 C 302.167,252.5 301.833,252.5 301.5,252.5C 301.5,232.167 301.5,211.833 301.5,191.5C 300.5,191.5 299.5,191.5 298.5,191.5C 299.145,190.188 300.145,189.188 301.5,188.5C 302.5,209.823 302.833,231.156 302.5,252.5 Z"/></g>
<g><path style="opacity:0.706" fill="#a66087" d="M 218.5,234.5 C 217.046,237.123 215.046,239.289 212.5,241C 213.416,241.278 214.082,241.778 214.5,242.5C 213.609,243.11 212.609,243.443 211.5,243.5C 210.356,242.817 210.356,243.151 211.5,244.5C 209.638,247.566 208.305,250.9 207.5,254.5C 208.527,256.184 209.527,257.851 210.5,259.5C 206.883,257.617 204.716,254.617 204,250.5C 201.666,254 198.832,257 195.5,259.5C 195.5,258.833 195.167,258.5 194.5,258.5C 194.5,257.833 194.167,257.5 193.5,257.5C 193.5,256.833 193.167,256.5 192.5,256.5C 192.5,255.833 192.167,255.5 191.5,255.5C 191.5,255.167 191.5,254.833 191.5,254.5C 191.833,254.5 192.167,254.5 192.5,254.5C 194.379,255.341 196.379,255.675 198.5,255.5C 198.5,254.167 198.5,252.833 198.5,251.5C 201.374,249.984 204.041,247.984 206.5,245.5C 207.598,241.893 209.931,239.893 213.5,239.5C 212.833,235.5 214.5,233.833 218.5,234.5 Z"/></g>
<g><path style="opacity:0.976" fill="#ac5276" d="M 152.5,246.5 C 154.507,248.689 155.507,251.355 155.5,254.5C 156.5,254.833 157.167,255.5 157.5,256.5C 156.833,256.5 156.5,256.833 156.5,257.5C 155.603,256.402 154.77,256.402 154,257.5C 150.8,253.121 147.133,249.121 143,245.5C 142.333,250.5 142.333,255.5 143,260.5C 144.418,262.739 145.585,265.072 146.5,267.5C 146.167,267.5 145.833,267.5 145.5,267.5C 145.5,266.833 145.167,266.5 144.5,266.5C 144.5,265.167 143.833,264.5 142.5,264.5C 142.217,263.711 141.717,263.044 141,262.5C 140.5,255.508 140.334,248.508 140.5,241.5C 141.675,241.281 142.675,241.614 143.5,242.5C 145.483,244.984 147.65,247.317 150,249.5C 150.377,248.058 151.21,247.058 152.5,246.5 Z"/></g>
<g><path style="opacity:1" fill="#af2965" d="M 156.5,257.5 C 156.833,257.5 157.167,257.5 157.5,257.5C 158.167,257.5 158.5,257.833 158.5,258.5C 158.5,258.833 158.5,259.167 158.5,259.5C 157.609,260.261 156.942,261.261 156.5,262.5C 157.365,262.564 158.365,262.897 159.5,263.5C 160.37,265.407 161.37,267.24 162.5,269C 161.381,270.876 159.714,271.709 157.5,271.5C 157.5,272.5 157.5,273.5 157.5,274.5C 154.057,274.65 152.057,272.983 151.5,269.5C 149.925,268.544 148.258,267.877 146.5,267.5C 145.585,265.072 144.418,262.739 143,260.5C 142.333,255.5 142.333,250.5 143,245.5C 147.133,249.121 150.8,253.121 154,257.5C 154.77,256.402 155.603,256.402 156.5,257.5 Z"/></g>
<g><path style="opacity:1" fill="#693e80" d="M 301.5,252.5 C 301.833,252.5 302.167,252.5 302.5,252.5C 321.833,252.5 341.167,252.5 360.5,252.5C 357.471,254.075 354.138,255.241 350.5,256C 345.428,257.115 340.428,257.782 335.5,258C 338.063,259.079 340.729,259.579 343.5,259.5C 343.528,261.582 342.861,263.416 341.5,265C 338.833,265.333 336.167,265.667 333.5,266C 343.009,266.17 352.342,266.67 361.5,267.5C 341.833,267.5 322.167,267.5 302.5,267.5C 302.167,267.5 301.833,267.5 301.5,267.5C 308.321,266.671 315.321,266.171 322.5,266C 323.76,264.887 324.927,264.72 326,265.5C 327.066,262.437 329.233,260.937 332.5,261C 328.097,260.066 323.764,259.066 319.5,258C 322.758,257.788 325.924,257.288 329,256.5C 329.333,256.833 329.667,257.167 330,257.5C 331.509,256.91 333.009,256.244 334.5,255.5C 323.802,254.19 313.135,254.19 302.5,255.5C 301.614,254.675 301.281,253.675 301.5,252.5 Z"/></g>
<g><path style="opacity:1" fill="#45398d" d="M 407.5,182.5 C 410.167,182.5 412.833,182.5 415.5,182.5C 415.611,183.117 415.944,183.617 416.5,184C 419.529,184.539 422.529,185.206 425.5,186C 423.5,187 421.5,188 419.5,189C 420.5,189.333 421.5,189.667 422.5,190C 420.038,191.216 417.371,191.882 414.5,192C 420.833,192.333 427.167,192.667 433.5,193C 436.245,193.053 438.245,194.22 439.5,196.5C 438.949,199.056 437.949,201.389 436.5,203.5C 437.718,203.109 438.552,203.776 439,205.5C 439.667,216.833 439.667,228.167 439,239.5C 438.415,241.129 437.581,242.629 436.5,244C 437.872,247.026 438.538,250.193 438.5,253.5C 434.299,253.442 433.799,254.442 437,256.5C 440.65,263.727 438.983,265.06 432,260.5C 430.762,263.926 431.929,265.592 435.5,265.5C 435.873,271.837 437.373,272.503 440,267.5C 441.074,268.618 442.24,269.618 443.5,270.5C 442.372,271.262 441.205,271.929 440,272.5C 439.5,294.831 439.333,317.164 439.5,339.5C 442.292,339.548 444.125,338.215 445,335.5C 445.232,336.737 445.732,337.737 446.5,338.5C 445.5,339.167 444.5,339.833 443.5,340.5C 441.167,340.5 438.833,340.5 436.5,340.5C 434.836,316.35 433.836,292.017 433.5,267.5C 416.341,266.503 399.008,266.17 381.5,266.5C 381.335,263.15 381.502,259.817 382,256.5C 382.5,256 383,255.5 383.5,255C 400.53,255.155 417.197,254.322 433.5,252.5C 434.497,233.341 434.83,214.007 434.5,194.5C 415.167,194.5 395.833,194.5 376.5,194.5C 386.36,193.797 396.36,192.964 406.5,192C 407.347,189.282 408.347,186.616 409.5,184C 408.584,183.722 407.918,183.222 407.5,182.5 Z"/></g>
<g><path style="opacity:1" fill="#a32f6a" d="M 180.5,265.5 C 180.167,265.5 179.833,265.5 179.5,265.5C 179.5,264.833 179.167,264.5 178.5,264.5C 178.5,263.833 178.167,263.5 177.5,263.5C 177.5,262.833 177.167,262.5 176.5,262.5C 176.5,261.833 176.167,261.5 175.5,261.5C 174.167,259.833 172.833,258.167 171.5,256.5C 170.167,253.833 170.167,251.167 171.5,248.5C 174.329,247.184 176.996,246.184 179.5,245.5C 181.725,246.946 182.558,248.946 182,251.5C 180.847,249.503 179.347,249.17 177.5,250.5C 179.962,251.794 182.295,253.294 184.5,255C 186.112,255.72 187.612,255.554 189,254.5C 189.97,256.274 190.804,258.107 191.5,260C 189.491,261.823 188.157,263.99 187.5,266.5C 185.194,266.007 182.861,265.674 180.5,265.5 Z"/></g>
<g><path style="opacity:1" fill="#78357c" d="M 298.5,191.5 C 299.5,191.5 300.5,191.5 301.5,191.5C 301.5,211.833 301.5,232.167 301.5,252.5C 301.281,253.675 301.614,254.675 302.5,255.5C 313.135,254.19 323.802,254.19 334.5,255.5C 333.009,256.244 331.509,256.91 330,257.5C 329.667,257.167 329.333,256.833 329,256.5C 325.924,257.288 322.758,257.788 319.5,258C 323.764,259.066 328.097,260.066 332.5,261C 329.233,260.937 327.066,262.437 326,265.5C 324.927,264.72 323.76,264.887 322.5,266C 315.321,266.171 308.321,266.671 301.5,267.5C 301.833,288.511 301.5,309.511 300.5,330.5C 299.717,328.712 298.384,327.712 296.5,327.5C 293.533,324.698 290.7,321.698 288,318.5C 287.333,279.5 287.333,240.5 288,201.5C 291.369,197.963 294.869,194.629 298.5,191.5 Z"/></g>
<g><path style="opacity:0.566" fill="#584b85" d="M 433.5,252.5 C 417.197,254.322 400.53,255.155 383.5,255C 383,255.5 382.5,256 382,256.5C 381.502,259.817 381.335,263.15 381.5,266.5C 399.008,266.17 416.341,266.503 433.5,267.5C 415.833,267.5 398.167,267.5 380.5,267.5C 379.513,262.695 379.179,257.695 379.5,252.5C 397.5,252.5 415.5,252.5 433.5,252.5 Z"/></g>
<g><path style="opacity:1" fill="#a64473" d="M 172.5,218.5 C 174.312,218.771 175.978,219.438 177.5,220.5C 178.026,222.23 179.026,223.564 180.5,224.5C 181.386,223.675 181.719,222.675 181.5,221.5C 182.5,221.5 183.5,221.5 184.5,221.5C 183.817,224.335 183.484,227.001 183.5,229.5C 183.167,229.5 182.833,229.5 182.5,229.5C 182.167,228.167 181.833,228.167 181.5,229.5C 182.6,230.605 183.267,231.938 183.5,233.5C 181.629,236.061 179.629,238.561 177.5,241C 180.416,244.087 183.416,246.921 186.5,249.5C 186.427,251.027 187.094,252.027 188.5,252.5C 189.833,252.167 189.833,251.833 188.5,251.5C 187.699,249.958 187.366,248.292 187.5,246.5C 188.833,245.167 190.167,243.833 191.5,242.5C 190.079,246.641 190.412,250.641 192.5,254.5C 192.167,254.5 191.833,254.5 191.5,254.5C 190.167,254.833 190.167,255.167 191.5,255.5C 192.167,255.5 192.5,255.833 192.5,256.5C 193.167,256.5 193.5,256.833 193.5,257.5C 194.167,257.5 194.5,257.833 194.5,258.5C 195.167,258.5 195.5,258.833 195.5,259.5C 196.737,262.245 198.57,264.578 201,266.5C 201.483,267.448 201.649,268.448 201.5,269.5C 200.833,269.5 200.5,269.833 200.5,270.5C 200.167,270.5 199.833,270.5 199.5,270.5C 199.5,269.167 199.5,267.833 199.5,266.5C 198.127,266.657 196.793,266.49 195.5,266C 194.359,265.259 194.359,264.425 195.5,263.5C 195.167,262.5 194.5,261.833 193.5,261.5C 191.058,264.202 188.724,267.035 186.5,270C 187.949,271.117 189.616,271.784 191.5,272C 190.167,273 190.167,274 191.5,275C 192.793,275.49 194.127,275.657 195.5,275.5C 195.5,275.833 195.5,276.167 195.5,276.5C 194.833,276.5 194.5,276.833 194.5,277.5C 193.833,277.5 193.5,277.833 193.5,278.5C 190.269,276.78 187.436,274.447 185,271.5C 182.5,274.333 180,277.167 177.5,280C 178.71,281.039 179.71,282.206 180.5,283.5C 178.435,283.517 176.435,283.85 174.5,284.5C 174.5,284.167 174.5,283.833 174.5,283.5C 173.572,279.542 174.906,276.875 178.5,275.5C 177.91,274.201 176.91,273.368 175.5,273C 176.624,272.751 177.624,272.251 178.5,271.5C 177.167,270.5 177.167,269.5 178.5,268.5C 177.675,267.614 176.675,267.281 175.5,267.5C 175.762,266.022 175.429,264.689 174.5,263.5C 172.04,265.636 170.373,268.302 169.5,271.5C 164.462,275.547 159.462,279.547 154.5,283.5C 154.859,281.629 155.859,280.129 157.5,279C 153.973,276.638 150.973,273.804 148.5,270.5C 148.5,269.833 148.167,269.5 147.5,269.5C 147.5,268.833 147.167,268.5 146.5,268.5C 146.5,268.167 146.5,267.833 146.5,267.5C 148.258,267.877 149.925,268.544 151.5,269.5C 152.057,272.983 154.057,274.65 157.5,274.5C 157.5,273.5 157.5,272.5 157.5,271.5C 159.714,271.709 161.381,270.876 162.5,269C 161.37,267.24 160.37,265.407 159.5,263.5C 158.365,262.897 157.365,262.564 156.5,262.5C 156.942,261.261 157.609,260.261 158.5,259.5C 158.833,259.5 159.167,259.5 159.5,259.5C 160.167,260.5 160.833,261.5 161.5,262.5C 163.428,264.781 164.428,267.447 164.5,270.5C 164.833,271.833 165.167,271.833 165.5,270.5C 166.167,270.5 166.5,270.167 166.5,269.5C 168.874,266.126 171.874,263.459 175.5,261.5C 176.167,261.5 176.5,261.833 176.5,262.5C 177.167,262.5 177.5,262.833 177.5,263.5C 178.167,263.5 178.5,263.833 178.5,264.5C 179.167,264.5 179.5,264.833 179.5,265.5C 179.833,266.833 180.167,266.833 180.5,265.5C 182.861,265.674 185.194,266.007 187.5,266.5C 188.157,263.99 189.491,261.823 191.5,260C 190.804,258.107 189.97,256.274 189,254.5C 187.612,255.554 186.112,255.72 184.5,255C 182.295,253.294 179.962,251.794 177.5,250.5C 179.347,249.17 180.847,249.503 182,251.5C 182.558,248.946 181.725,246.946 179.5,245.5C 176.996,246.184 174.329,247.184 171.5,248.5C 170.167,251.167 170.167,253.833 171.5,256.5C 170.196,255.013 169.03,253.346 168,251.5C 166.296,253.373 164.463,255.04 162.5,256.5C 162.993,254.194 163.326,251.861 163.5,249.5C 166.588,249.803 168.254,248.47 168.5,245.5C 169.833,245.5 171.167,245.5 172.5,245.5C 172.5,243.833 172.5,242.167 172.5,240.5C 173.833,240.5 175.167,240.5 176.5,240.5C 176.5,239.5 176.5,238.5 176.5,237.5C 172.544,236.947 172.544,236.114 176.5,235C 171.795,226.809 168.461,227.143 166.5,236C 163.98,237.763 161.647,239.763 159.5,242C 158.207,242.49 156.873,242.657 155.5,242.5C 155.953,241.542 156.619,240.708 157.5,240C 154.261,238.264 151.927,235.764 150.5,232.5C 153.202,233.143 155.535,233.81 157.5,234.5C 159.754,232.751 161.42,230.584 162.5,228C 161.252,225.927 160.252,223.761 159.5,221.5C 162.5,223.668 165,226.334 167,229.5C 169.643,226.174 172.809,223.674 176.5,222C 174.676,221.34 173.343,220.173 172.5,218.5 Z M 160.5,236.5 C 160.167,237.5 159.5,238.167 158.5,238.5C 158.5,237.167 159.167,236.5 160.5,236.5 Z"/></g>
<g><path style="opacity:0.631" fill="#ca97b3" d="M 161.5,262.5 C 164.538,264.356 166.204,266.69 166.5,269.5C 166.5,270.167 166.167,270.5 165.5,270.5C 165.167,270.5 164.833,270.5 164.5,270.5C 164.428,267.447 163.428,264.781 161.5,262.5 Z"/></g>
<g><path style="opacity:0.008" fill="#f4e6eb" d="M 187.5,246.5 C 187.366,248.292 187.699,249.958 188.5,251.5C 188.5,251.833 188.5,252.167 188.5,252.5C 187.094,252.027 186.427,251.027 186.5,249.5C 186.263,248.209 186.596,247.209 187.5,246.5 Z"/></g>
<g><path style="opacity:1" fill="#ad4b70" d="M 142.5,264.5 C 142.833,265.5 143.5,266.167 144.5,266.5C 145.167,266.5 145.5,266.833 145.5,267.5C 145.5,268.167 145.833,268.5 146.5,268.5C 147.167,268.5 147.5,268.833 147.5,269.5C 148.167,269.5 148.5,269.833 148.5,270.5C 147.299,274.369 144.966,277.369 141.5,279.5C 141.167,277 140.833,274.5 140.5,272C 140.525,269.071 141.191,266.571 142.5,264.5 Z"/></g>
<g><path style="opacity:1" fill="#92497a" d="M 240.5,227.5 C 239.955,229.593 239.122,231.593 238,233.5C 233.209,238.101 229.376,242.934 226.5,248C 226.673,250.904 227.673,253.738 229.5,256.5C 230.833,256.5 232.167,256.5 233.5,256.5C 233.5,254.833 233.5,253.167 233.5,251.5C 235.167,251.5 236.833,251.5 238.5,251.5C 236.179,254.629 233.512,257.462 230.5,260C 237.042,267.038 243.375,274.205 249.5,281.5C 246.575,280.364 243.908,278.698 241.5,276.5C 240.914,276.709 240.414,277.043 240,277.5C 238.234,275.119 237.068,272.452 236.5,269.5C 233.658,268.996 232.325,267.329 232.5,264.5C 230.278,264.822 228.444,264.155 227,262.5C 225.54,259.252 224.374,255.919 223.5,252.5C 224.833,252.167 224.833,251.833 223.5,251.5C 223.5,250.833 223.167,250.5 222.5,250.5C 222.5,249.833 222.167,249.5 221.5,249.5C 227.092,241.571 233.426,234.238 240.5,227.5 Z"/></g>
<g><path style="opacity:1" fill="#3e3a92" d="M 415.5,182.5 C 425.833,182.5 436.167,182.5 446.5,182.5C 446.5,234.5 446.5,286.5 446.5,338.5C 445.732,337.737 445.232,336.737 445,335.5C 444.125,338.215 442.292,339.548 439.5,339.5C 439.333,317.164 439.5,294.831 440,272.5C 441.205,271.929 442.372,271.262 443.5,270.5C 442.24,269.618 441.074,268.618 440,267.5C 437.373,272.503 435.873,271.837 435.5,265.5C 431.929,265.592 430.762,263.926 432,260.5C 438.983,265.06 440.65,263.727 437,256.5C 433.799,254.442 434.299,253.442 438.5,253.5C 438.538,250.193 437.872,247.026 436.5,244C 437.581,242.629 438.415,241.129 439,239.5C 439.667,228.167 439.667,216.833 439,205.5C 438.552,203.776 437.718,203.109 436.5,203.5C 437.949,201.389 438.949,199.056 439.5,196.5C 438.245,194.22 436.245,193.053 433.5,193C 427.167,192.667 420.833,192.333 414.5,192C 417.371,191.882 420.038,191.216 422.5,190C 421.5,189.667 420.5,189.333 419.5,189C 421.5,188 423.5,187 425.5,186C 422.529,185.206 419.529,184.539 416.5,184C 415.944,183.617 415.611,183.117 415.5,182.5 Z"/></g>
<g><path style="opacity:1" fill="#aa2a67" d="M 174.5,283.5 C 173.833,283.5 173.5,283.833 173.5,284.5C 171.248,285.333 169.081,285.333 167,284.5C 166.51,285.793 166.343,287.127 166.5,288.5C 163.724,288.089 163.057,288.922 164.5,291C 163.293,292.3 162.626,293.8 162.5,295.5C 160.833,295.5 159.167,295.5 157.5,295.5C 156.677,292.649 155.344,289.982 153.5,287.5C 154.246,286.264 154.579,284.93 154.5,283.5C 159.462,279.547 164.462,275.547 169.5,271.5C 170.373,268.302 172.04,265.636 174.5,263.5C 175.429,264.689 175.762,266.022 175.5,267.5C 176.675,267.281 177.675,267.614 178.5,268.5C 177.167,269.5 177.167,270.5 178.5,271.5C 177.624,272.251 176.624,272.751 175.5,273C 176.91,273.368 177.91,274.201 178.5,275.5C 174.906,276.875 173.572,279.542 174.5,283.5 Z"/></g>
<g><path style="opacity:1" fill="#d42257" d="M 50.5,182.5 C 53.5,182.5 56.5,182.5 59.5,182.5C 60.8018,229.724 60.8018,276.891 59.5,324C 60.1667,325 60.8333,326 61.5,327C 60.8433,328.695 60.8433,330.528 61.5,332.5C 61.1667,333.5 60.8333,334.5 60.5,335.5C 59.398,330.26 58.5647,325.26 58,320.5C 55.9867,324.929 55.1534,329.929 55.5,335.5C 53.5,335.5 51.5,335.5 49.5,335.5C 49.2035,284.487 49.5369,233.487 50.5,182.5 Z"/></g>
<g><path style="opacity:1" fill="#b8628a" d="M 173.5,284.5 C 173.833,284.5 174.167,284.5 174.5,284.5C 173.136,286.191 171.803,287.858 170.5,289.5C 170.167,288.167 169.833,288.167 169.5,289.5C 168.833,289.5 168.5,289.833 168.5,290.5C 165.479,293.291 162.479,295.958 159.5,298.5C 159.5,297.833 159.167,297.5 158.5,297.5C 158.5,296.833 158.167,296.5 157.5,296.5C 157.5,296.167 157.5,295.833 157.5,295.5C 159.167,295.5 160.833,295.5 162.5,295.5C 162.626,293.8 163.293,292.3 164.5,291C 163.057,288.922 163.724,288.089 166.5,288.5C 166.343,287.127 166.51,285.793 167,284.5C 169.081,285.333 171.248,285.333 173.5,284.5 Z"/></g>
<g><path style="opacity:1" fill="#9c2e6d" d="M 199.5,270.5 C 199.833,271.833 200.167,271.833 200.5,270.5C 201.167,270.5 201.5,270.167 201.5,269.5C 202.873,267.793 204.539,266.46 206.5,265.5C 207.531,264.645 208.697,263.978 210,263.5C 214.076,266.634 215.576,270.634 214.5,275.5C 213.158,277.005 211.492,277.672 209.5,277.5C 209.502,279.831 208.669,281.831 207,283.5C 206.259,284.641 205.425,284.641 204.5,283.5C 203.316,285.046 202.316,286.713 201.5,288.5C 200.325,287.145 199.325,287.312 198.5,289C 199.956,289.423 200.456,290.256 200,291.5C 197.871,290.137 197.371,290.471 198.5,292.5C 195.8,295.075 194.467,294.742 194.5,291.5C 193.167,291.5 191.833,291.5 190.5,291.5C 190.374,289.8 189.707,288.3 188.5,287C 188.743,286.098 189.077,285.265 189.5,284.5C 190.807,282.518 192.141,280.518 193.5,278.5C 194.167,278.5 194.5,278.167 194.5,277.5C 195.167,277.5 195.5,277.167 195.5,276.5C 196.833,276.167 196.833,275.833 195.5,275.5C 194.127,275.657 192.793,275.49 191.5,275C 190.167,274 190.167,273 191.5,272C 189.616,271.784 187.949,271.117 186.5,270C 188.724,267.035 191.058,264.202 193.5,261.5C 194.5,261.833 195.167,262.5 195.5,263.5C 194.359,264.425 194.359,265.259 195.5,266C 196.793,266.49 198.127,266.657 199.5,266.5C 199.5,267.833 199.5,269.167 199.5,270.5 Z"/></g>
<g><path style="opacity:0.145" fill="#c45774" d="M 63.5,325.5 C 62.5012,277.67 62.1678,229.67 62.5,181.5C 57.8333,181.5 53.1667,181.5 48.5,181.5C 48.5,234.5 48.5,287.5 48.5,340.5C 64.1667,340.5 79.8333,340.5 95.5,340.5C 105.015,340.173 114.348,340.506 123.5,341.5C 98.1667,341.5 72.8333,341.5 47.5,341.5C 47.3333,287.832 47.5,234.166 48,180.5C 53.0717,179.529 58.2384,179.195 63.5,179.5C 63.5,228.167 63.5,276.833 63.5,325.5 Z"/></g>
<g><path style="opacity:0.925" fill="#ae537b" d="M 154.5,283.5 C 154.579,284.93 154.246,286.264 153.5,287.5C 155.344,289.982 156.677,292.649 157.5,295.5C 156.167,295.833 156.167,296.167 157.5,296.5C 158.167,296.5 158.5,296.833 158.5,297.5C 159.167,297.5 159.5,297.833 159.5,298.5C 160.527,300.184 161.527,301.851 162.5,303.5C 158.494,300.827 155.161,297.494 152.5,293.5C 148.26,292.463 146.26,289.796 146.5,285.5C 147.794,286.29 148.961,287.29 150,288.5C 150.996,286.34 152.496,284.673 154.5,283.5 Z"/></g>
<g><path style="opacity:1" fill="#893073" d="M 214.5,242.5 C 217.061,244.64 219.395,246.973 221.5,249.5C 222.167,249.5 222.5,249.833 222.5,250.5C 223.167,250.5 223.5,250.833 223.5,251.5C 223.5,251.833 223.5,252.167 223.5,252.5C 224.374,255.919 225.54,259.252 227,262.5C 228.444,264.155 230.278,264.822 232.5,264.5C 232.325,267.329 233.658,268.996 236.5,269.5C 237.068,272.452 238.234,275.119 240,277.5C 240.414,277.043 240.914,276.709 241.5,276.5C 243.908,278.698 246.575,280.364 249.5,281.5C 252.409,284.344 255.076,287.344 257.5,290.5C 257.5,292.833 257.5,295.167 257.5,297.5C 259.167,297.5 260.833,297.5 262.5,297.5C 262.5,298.833 262.5,300.167 262.5,301.5C 266.485,301.44 268.152,303.44 267.5,307.5C 271.5,306.833 273.167,308.5 272.5,312.5C 270.738,312.357 269.071,312.691 267.5,313.5C 264.306,311.261 261.639,308.594 259.5,305.5C 258.784,306.311 257.95,306.978 257,307.5C 255.2,306.68 253.366,306.014 251.5,305.5C 251.501,301.794 249.835,299.461 246.5,298.5C 246.418,294.415 244.418,291.748 240.5,290.5C 239.976,288.547 238.976,286.88 237.5,285.5C 238.46,284.188 238.294,282.854 237,281.5C 236.586,281.957 236.086,282.291 235.5,282.5C 233.504,279.513 230.838,277.513 227.5,276.5C 227.723,274.658 228.057,272.825 228.5,271C 226.824,269.886 226.157,267.719 226.5,264.5C 224.09,264.921 222.257,266.254 221,268.5C 220.391,264.717 218.224,263.05 214.5,263.5C 214.435,261.304 213.768,259.304 212.5,257.5C 211.304,257.846 211.304,258.346 212.5,259C 211.906,259.464 211.239,259.631 210.5,259.5C 209.527,257.851 208.527,256.184 207.5,254.5C 208.305,250.9 209.638,247.566 211.5,244.5C 211.5,244.167 211.5,243.833 211.5,243.5C 212.609,243.443 213.609,243.11 214.5,242.5 Z"/></g>
<g><path style="opacity:1" fill="#9b4a79" d="M 251.5,305.5 C 240.532,293.695 229.699,281.695 219,269.5C 219,270.833 219,272.167 219,273.5C 216.65,275.683 214.483,278.016 212.5,280.5C 218.517,285.543 223.85,291.21 228.5,297.5C 225.756,295.548 222.756,294.048 219.5,293C 217.946,290.325 216.613,287.492 215.5,284.5C 213.905,283.566 212.239,283.566 210.5,284.5C 210.114,286.937 208.947,288.937 207,290.5C 206.51,291.793 206.343,293.127 206.5,294.5C 205.057,293.665 204.057,292.332 203.5,290.5C 200.811,293.52 198.144,296.52 195.5,299.5C 193.362,299.297 191.695,298.297 190.5,296.5C 189.914,296.709 189.414,297.043 189,297.5C 187.369,294.588 185.869,291.588 184.5,288.5C 186.167,287.167 187.833,285.833 189.5,284.5C 189.077,285.265 188.743,286.098 188.5,287C 189.707,288.3 190.374,289.8 190.5,291.5C 191.833,291.5 193.167,291.5 194.5,291.5C 194.467,294.742 195.8,295.075 198.5,292.5C 197.371,290.471 197.871,290.137 200,291.5C 200.456,290.256 199.956,289.423 198.5,289C 199.325,287.312 200.325,287.145 201.5,288.5C 202.316,286.713 203.316,285.046 204.5,283.5C 205.425,284.641 206.259,284.641 207,283.5C 208.669,281.831 209.502,279.831 209.5,277.5C 211.492,277.672 213.158,277.005 214.5,275.5C 215.576,270.634 214.076,266.634 210,263.5C 208.697,263.978 207.531,264.645 206.5,265.5C 206.948,262.513 208.448,261.513 211,262.5C 211.47,261.423 211.303,260.423 210.5,259.5C 211.239,259.631 211.906,259.464 212.5,259C 211.304,258.346 211.304,257.846 212.5,257.5C 213.768,259.304 214.435,261.304 214.5,263.5C 218.224,263.05 220.391,264.717 221,268.5C 222.257,266.254 224.09,264.921 226.5,264.5C 226.157,267.719 226.824,269.886 228.5,271C 228.057,272.825 227.723,274.658 227.5,276.5C 230.838,277.513 233.504,279.513 235.5,282.5C 236.086,282.291 236.586,281.957 237,281.5C 238.294,282.854 238.46,284.188 237.5,285.5C 238.976,286.88 239.976,288.547 240.5,290.5C 244.418,291.748 246.418,294.415 246.5,298.5C 249.835,299.461 251.501,301.794 251.5,305.5 Z M 189.5,292.5 C 190.833,292.5 191.5,293.167 191.5,294.5C 190.5,294.167 189.833,293.5 189.5,292.5 Z M 213.5,264.5 C 214.833,264.5 215.5,265.167 215.5,266.5C 214.5,266.167 213.833,265.5 213.5,264.5 Z M 191.5,294.5 C 192.833,294.5 193.5,295.167 193.5,296.5C 192.5,296.167 191.833,295.5 191.5,294.5 Z"/></g>
<g><path style="opacity:1" fill="#932f70" d="M 228.5,297.5 C 228.894,298.967 229.227,300.467 229.5,302C 229.245,303.326 228.578,304.326 227.5,305C 230.095,307.499 232.595,309.999 235,312.5C 235.483,313.448 235.649,314.448 235.5,315.5C 232.752,316.032 230.752,317.032 229.5,318.5C 227.806,315.111 226.639,311.778 226,308.5C 225.667,309.833 225.333,311.167 225,312.5C 222.872,310.193 220.372,308.526 217.5,307.5C 213.435,303.441 209.768,299.107 206.5,294.5C 206.343,293.127 206.51,291.793 207,290.5C 208.947,288.937 210.114,286.937 210.5,284.5C 212.239,283.566 213.905,283.566 215.5,284.5C 216.613,287.492 217.946,290.325 219.5,293C 222.756,294.048 225.756,295.548 228.5,297.5 Z"/></g>
<g><path style="opacity:1" fill="#a22d6a" d="M 180.5,283.5 C 182.587,284.585 183.92,286.251 184.5,288.5C 185.869,291.588 187.369,294.588 189,297.5C 189.414,297.043 189.914,296.709 190.5,296.5C 191.695,298.297 193.362,299.297 195.5,299.5C 196.338,299.842 196.672,300.508 196.5,301.5C 196.657,302.873 196.49,304.207 196,305.5C 194.757,304.664 193.59,304.997 192.5,306.5C 193.888,308.109 194.888,309.942 195.5,312C 195.252,313.749 194.252,314.582 192.5,314.5C 191.596,313.791 191.263,312.791 191.5,311.5C 189.738,311.643 188.071,311.309 186.5,310.5C 183.413,304.746 179.079,300.412 173.5,297.5C 170.677,296.008 169.01,293.674 168.5,290.5C 169.167,290.5 169.5,290.167 169.5,289.5C 169.833,289.5 170.167,289.5 170.5,289.5C 171.803,287.858 173.136,286.191 174.5,284.5C 176.435,283.85 178.435,283.517 180.5,283.5 Z"/></g>
<g><path style="opacity:0.185" fill="#86668c" d="M 301.5,267.5 C 301.833,267.5 302.167,267.5 302.5,267.5C 302.5,267.833 302.5,268.167 302.5,268.5C 302.5,289.5 302.5,310.5 302.5,331.5C 299.478,331.658 297.478,330.325 296.5,327.5C 298.384,327.712 299.717,328.712 300.5,330.5C 301.5,309.511 301.833,288.511 301.5,267.5 Z"/></g>
<g><path style="opacity:0.261" fill="#ad9dbb" d="M 302.5,268.5 C 302.5,268.167 302.5,267.833 302.5,267.5C 322.167,267.5 341.833,267.5 361.5,267.5C 361.5,291.833 361.5,316.167 361.5,340.5C 365.833,340.5 370.167,340.5 374.5,340.5C 374.833,340.5 375.167,340.5 375.5,340.5C 370.695,341.487 365.695,341.821 360.5,341.5C 360.5,317.167 360.5,292.833 360.5,268.5C 341.167,268.5 321.833,268.5 302.5,268.5 Z"/></g>
<g><path style="opacity:1" fill="#ac3066" d="M 146.5,285.5 C 146.26,289.796 148.26,292.463 152.5,293.5C 155.161,297.494 158.494,300.827 162.5,303.5C 162.5,305.5 162.5,307.5 162.5,309.5C 161.5,309.5 160.5,309.5 159.5,309.5C 159.5,311.167 159.5,312.833 159.5,314.5C 155.865,313.848 152.531,312.514 149.5,310.5C 149.19,308.856 148.19,307.856 146.5,307.5C 146.5,306.833 146.167,306.5 145.5,306.5C 145.5,305.833 145.167,305.5 144.5,305.5C 144.5,304.833 144.167,304.5 143.5,304.5C 143.5,303.833 143.167,303.5 142.5,303.5C 142.217,302.711 141.717,302.044 141,301.5C 140.169,294.476 140.336,287.476 141.5,280.5C 143.521,281.855 145.188,283.521 146.5,285.5 Z"/></g>
<g><path style="opacity:0.973" fill="#a9466c" d="M 142.5,303.5 C 143.167,303.5 143.5,303.833 143.5,304.5C 144.167,304.5 144.5,304.833 144.5,305.5C 145.167,305.5 145.5,305.833 145.5,306.5C 145.5,306.833 145.5,307.167 145.5,307.5C 146.942,308.82 147.608,310.486 147.5,312.5C 145.854,314.812 143.854,316.812 141.5,318.5C 141.167,316 140.833,313.5 140.5,311C 140.525,308.071 141.191,305.571 142.5,303.5 Z"/></g>
<g><path style="opacity:0.043" fill="#f0c4d9" d="M 145.5,307.5 C 145.833,307.5 146.167,307.5 146.5,307.5C 148.19,307.856 149.19,308.856 149.5,310.5C 148.833,311.167 148.167,311.833 147.5,312.5C 147.608,310.486 146.942,308.82 145.5,307.5 Z"/></g>
<g><path style="opacity:1" fill="#8d3b76" d="M 228.5,297.5 C 241.134,310.971 253.634,324.637 266,338.5C 266.483,339.448 266.649,340.448 266.5,341.5C 260.132,341.83 253.798,341.496 247.5,340.5C 237.45,329.454 227.45,318.454 217.5,307.5C 220.372,308.526 222.872,310.193 225,312.5C 225.333,311.167 225.667,309.833 226,308.5C 226.639,311.778 227.806,315.111 229.5,318.5C 230.752,317.032 232.752,316.032 235.5,315.5C 235.649,314.448 235.483,313.448 235,312.5C 232.595,309.999 230.095,307.499 227.5,305C 228.578,304.326 229.245,303.326 229.5,302C 229.227,300.467 228.894,298.967 228.5,297.5 Z"/></g>
<g><path style="opacity:1" fill="#823c79" d="M 257.5,290.5 C 269.531,303.196 281.197,316.196 292.5,329.5C 290.214,328.055 288.047,326.388 286,324.5C 284.566,324.93 283.399,325.764 282.5,327C 278.649,326.358 275.649,324.191 273.5,320.5C 274.689,319.571 276.022,319.238 277.5,319.5C 277.789,324.275 279.455,324.775 282.5,321C 281.437,319.812 280.103,319.312 278.5,319.5C 278.956,315.881 277.456,313.548 274,312.5C 274.184,315.797 272.684,317.797 269.5,318.5C 269.977,319.478 270.643,320.311 271.5,321C 271.014,323.027 271.014,325.193 271.5,327.5C 264.492,320.492 257.826,313.158 251.5,305.5C 253.366,306.014 255.2,306.68 257,307.5C 257.95,306.978 258.784,306.311 259.5,305.5C 261.639,308.594 264.306,311.261 267.5,313.5C 269.071,312.691 270.738,312.357 272.5,312.5C 273.167,308.5 271.5,306.833 267.5,307.5C 268.152,303.44 266.485,301.44 262.5,301.5C 262.5,300.167 262.5,298.833 262.5,297.5C 260.833,297.5 259.167,297.5 257.5,297.5C 257.5,295.167 257.5,292.833 257.5,290.5 Z"/></g>
<g><path style="opacity:0.992" fill="#a5557d" d="M 173.5,297.5 C 179.079,300.412 183.413,304.746 186.5,310.5C 188.071,311.309 189.738,311.643 191.5,311.5C 191.263,312.791 191.596,313.791 192.5,314.5C 192.393,316.379 192.893,316.712 194,315.5C 194.49,316.793 194.657,318.127 194.5,319.5C 195.822,319.33 196.989,319.663 198,320.5C 199.303,323.625 200.803,326.625 202.5,329.5C 196.856,323.607 191.19,317.607 185.5,311.5C 182.48,314.189 179.48,316.856 176.5,319.5C 176.33,316.509 177.663,314.509 180.5,313.5C 181.452,311.955 181.785,310.288 181.5,308.5C 180.883,308.611 180.383,308.944 180,309.5C 179.51,308.207 179.343,306.873 179.5,305.5C 179.5,304.833 179.167,304.5 178.5,304.5C 175.589,303.017 172.922,303.35 170.5,305.5C 171.394,302.061 173.394,300.561 176.5,301C 175.29,299.961 174.29,298.794 173.5,297.5 Z"/></g>
<g><path style="opacity:0.359" fill="#7a77b5" d="M 380.5,267.5 C 398.167,267.5 415.833,267.5 433.5,267.5C 433.836,292.017 434.836,316.35 436.5,340.5C 436.5,340.833 436.5,341.167 436.5,341.5C 435.5,341.5 434.5,341.5 433.5,341.5C 433.5,317.167 433.5,292.833 433.5,268.5C 415.659,268.83 397.992,268.497 380.5,267.5 Z"/></g>
<g><path style="opacity:1" fill="#992c6d" d="M 196.5,301.5 C 198.5,302.833 200.167,304.5 201.5,306.5C 205.593,312.898 210.26,318.898 215.5,324.5C 216.432,326.795 217.265,329.129 218,331.5C 221.448,333.611 224.614,336.111 227.5,339C 222.845,339.499 218.179,339.666 213.5,339.5C 213.5,337.5 213.5,335.5 213.5,333.5C 212.07,333.421 210.736,333.754 209.5,334.5C 209.167,333.167 208.833,331.833 208.5,330.5C 206.374,331.462 204.374,331.128 202.5,329.5C 200.803,326.625 199.303,323.625 198,320.5C 196.989,319.663 195.822,319.33 194.5,319.5C 194.657,318.127 194.49,316.793 194,315.5C 192.893,316.712 192.393,316.379 192.5,314.5C 194.252,314.582 195.252,313.749 195.5,312C 194.888,309.942 193.888,308.109 192.5,306.5C 193.59,304.997 194.757,304.664 196,305.5C 196.49,304.207 196.657,302.873 196.5,301.5 Z"/></g>
<g><path style="opacity:1" fill="#a92b67" d="M 178.5,304.5 C 179.167,304.5 179.5,304.833 179.5,305.5C 179.343,306.873 179.51,308.207 180,309.5C 180.383,308.944 180.883,308.611 181.5,308.5C 181.785,310.288 181.452,311.955 180.5,313.5C 177.663,314.509 176.33,316.509 176.5,319.5C 176.5,319.833 176.5,320.167 176.5,320.5C 175.833,320.5 175.5,320.833 175.5,321.5C 173.5,322.833 171.833,324.5 170.5,326.5C 170.5,326.833 170.5,327.167 170.5,327.5C 170.167,327.5 169.833,327.5 169.5,327.5C 167.833,327.5 166.167,327.5 164.5,327.5C 164.677,329.981 163.677,331.814 161.5,333C 161.833,333.333 162.167,333.667 162.5,334C 160.455,334.49 158.455,334.323 156.5,333.5C 156.415,331.071 155.415,329.071 153.5,327.5C 155.886,323.977 157.886,320.31 159.5,316.5C 162.142,316.512 163.475,315.179 163.5,312.5C 163.5,312.167 163.5,311.833 163.5,311.5C 164.167,311.5 164.5,311.167 164.5,310.5C 165.167,310.5 165.5,310.167 165.5,309.5C 166.167,309.5 166.5,309.167 166.5,308.5C 167.637,307.211 168.97,306.211 170.5,305.5C 172.922,303.35 175.589,303.017 178.5,304.5 Z"/></g>
<g><path style="opacity:0.004" fill="#fad5eb" d="M 175.5,321.5 C 175.833,321.5 176.167,321.5 176.5,321.5C 175.118,323.549 173.452,325.215 171.5,326.5C 171.167,326.5 170.833,326.5 170.5,326.5C 171.833,324.5 173.5,322.833 175.5,321.5 Z"/></g>
<g><path style="opacity:1" fill="#bc3666" d="M 63.5,325.5 C 87.1667,325.5 110.833,325.5 134.5,325.5C 136.36,330.193 137.026,335.193 136.5,340.5C 133.287,340.19 130.287,340.523 127.5,341.5C 126.167,341.5 124.833,341.5 123.5,341.5C 114.348,340.506 105.015,340.173 95.5,340.5C 97.9479,339.527 100.615,339.194 103.5,339.5C 102.871,337.535 102.204,335.535 101.5,333.5C 102.204,331.465 102.871,329.465 103.5,327.5C 89.9685,327.715 76.6352,327.049 63.5,325.5 Z"/></g>
<g><path style="opacity:1" fill="#a73f72" d="M 176.5,320.5 C 184.222,326.059 190.889,332.892 196.5,341C 189.808,341.831 183.142,341.664 176.5,340.5C 172.582,337.606 169.916,333.939 168.5,329.5C 169.167,329.5 169.5,329.167 169.5,328.5C 170.167,328.5 170.5,328.167 170.5,327.5C 171.167,327.5 171.5,327.167 171.5,326.5C 173.452,325.215 175.118,323.549 176.5,321.5C 176.5,321.167 176.5,320.833 176.5,320.5 Z"/></g>
<g><path style="opacity:1" fill="#7c307b" d="M 292.5,329.5 C 292.833,329.5 293.167,329.5 293.5,329.5C 293.674,331.861 294.007,334.194 294.5,336.5C 295.833,336.5 297.167,336.5 298.5,336.5C 298.5,337.5 298.5,338.5 298.5,339.5C 288.353,340.763 280.353,337.097 274.5,328.5C 273.583,327.873 272.583,327.539 271.5,327.5C 271.014,325.193 271.014,323.027 271.5,321C 270.643,320.311 269.977,319.478 269.5,318.5C 272.684,317.797 274.184,315.797 274,312.5C 277.456,313.548 278.956,315.881 278.5,319.5C 280.103,319.312 281.437,319.812 282.5,321C 279.455,324.775 277.789,324.275 277.5,319.5C 276.022,319.238 274.689,319.571 273.5,320.5C 275.649,324.191 278.649,326.358 282.5,327C 283.399,325.764 284.566,324.93 286,324.5C 288.047,326.388 290.214,328.055 292.5,329.5 Z"/></g>
<g><path style="opacity:0.267" fill="#dea0bb" d="M 134.5,325.5 C 135.5,325.5 136.5,325.5 137.5,325.5C 137.5,330.833 137.5,336.167 137.5,341.5C 134.167,341.5 130.833,341.5 127.5,341.5C 130.287,340.523 133.287,340.19 136.5,340.5C 137.026,335.193 136.36,330.193 134.5,325.5 Z"/></g>
<g><path style="opacity:1" fill="#9c537f" d="M 201.5,306.5 C 211.953,317.386 221.953,328.719 231.5,340.5C 225.193,341.664 218.859,341.831 212.5,341C 208.591,337.596 205.257,333.763 202.5,329.5C 204.374,331.128 206.374,331.462 208.5,330.5C 208.833,331.833 209.167,333.167 209.5,334.5C 210.736,333.754 212.07,333.421 213.5,333.5C 213.5,335.5 213.5,337.5 213.5,339.5C 218.179,339.666 222.845,339.499 227.5,339C 224.614,336.111 221.448,333.611 218,331.5C 217.265,329.129 216.432,326.795 215.5,324.5C 210.26,318.898 205.593,312.898 201.5,306.5 Z"/></g>
<g><path style="opacity:0.98" fill="#af577a" d="M 162.5,303.5 C 164.531,304.539 165.864,306.205 166.5,308.5C 165.833,308.5 165.5,308.833 165.5,309.5C 164.833,309.5 164.5,309.833 164.5,310.5C 163.833,310.5 163.5,310.833 163.5,311.5C 162.167,311.833 162.167,312.167 163.5,312.5C 163.475,315.179 162.142,316.512 159.5,316.5C 157.886,320.31 155.886,323.977 153.5,327.5C 155.415,329.071 156.415,331.071 156.5,333.5C 158.455,334.323 160.455,334.49 162.5,334C 162.167,333.667 161.833,333.333 161.5,333C 163.677,331.814 164.677,329.981 164.5,327.5C 166.167,327.5 167.833,327.5 169.5,327.5C 169.5,327.833 169.5,328.167 169.5,328.5C 168.833,328.5 168.5,328.833 168.5,329.5C 166.233,332.271 163.733,334.938 161,337.5C 160.51,338.793 160.343,340.127 160.5,341.5C 153.833,341.5 147.167,341.5 140.5,341.5C 140.169,334.137 140.503,326.803 141.5,319.5C 144.484,321.984 147.318,324.65 150,327.5C 152.5,324.333 155,321.167 157.5,318C 154.334,316 151.668,313.5 149.5,310.5C 152.531,312.514 155.865,313.848 159.5,314.5C 159.5,312.833 159.5,311.167 159.5,309.5C 160.5,309.5 161.5,309.5 162.5,309.5C 162.5,307.5 162.5,305.5 162.5,303.5 Z"/></g>
<g><path style="opacity:1" fill="#ae2c64" d="M 150.5,328.5 C 150.5,329.167 150.833,329.5 151.5,329.5C 151.5,330.833 152.167,331.5 153.5,331.5C 153.5,332.167 153.833,332.5 154.5,332.5C 154.5,333.167 154.833,333.5 155.5,333.5C 155.357,335.262 155.691,336.929 156.5,338.5C 151.88,339.493 147.214,339.827 142.5,339.5C 142.334,334.156 142.501,328.823 143,323.5C 145.4,325.415 147.9,327.081 150.5,328.5 Z"/></g>
<g><path style="opacity:0.833" fill="#774878" d="M 271.5,327.5 C 272.583,327.539 273.583,327.873 274.5,328.5C 280.353,337.097 288.353,340.763 298.5,339.5C 298.5,338.5 298.5,337.5 298.5,336.5C 297.167,336.5 295.833,336.5 294.5,336.5C 294.007,334.194 293.674,331.861 293.5,329.5C 296.138,332.474 298.805,335.474 301.5,338.5C 295.926,340.453 289.926,341.12 283.5,340.5C 279.16,336.493 275.16,332.16 271.5,327.5 Z"/></g>
<g><path style="opacity:0.096" fill="#e4cbe5" d="M 301.5,338.5 C 302.404,339.209 302.737,340.209 302.5,341.5C 295.978,341.823 289.645,341.49 283.5,340.5C 289.926,341.12 295.926,340.453 301.5,338.5 Z"/></g>
</svg>
